<mxfile host="app.diagrams.net" agent="Mozilla/5.0 (Macintosh; Intel Mac OS X 10_15_7) AppleWebKit/605.1.15 (KHTML, like Gecko) Version/17.5 Safari/605.1.15" version="26.1.2">
  <diagram name="第 1 页" id="rHqLDDLFqZFZl1hkQCrB">
    <mxGraphModel dx="318" dy="217" grid="1" gridSize="10" guides="1" tooltips="1" connect="1" arrows="1" fold="1" page="1" pageScale="1" pageWidth="827" pageHeight="1169" math="0" shadow="0">
      <root>
        <mxCell id="0" />
        <mxCell id="1" parent="0" />
        <mxCell id="gk1aNY16_VAk6JklORu2-112" value="" style="rounded=0;whiteSpace=wrap;html=1;dashed=1;" vertex="1" parent="1">
          <mxGeometry x="541.49" y="942.87" width="120" height="144.32" as="geometry" />
        </mxCell>
        <mxCell id="gk1aNY16_VAk6JklORu2-1" value="" style="rounded=0;whiteSpace=wrap;html=1;dashed=1;" vertex="1" parent="1">
          <mxGeometry x="675.63" y="943" width="64.37" height="145.16" as="geometry" />
        </mxCell>
        <mxCell id="gk1aNY16_VAk6JklORu2-7" value="&lt;span style=&quot;font-size: 6px;&quot;&gt;边缘集群&lt;/span&gt;" style="text;html=1;align=center;verticalAlign=middle;whiteSpace=wrap;rounded=0;fontStyle=1" vertex="1" parent="1">
          <mxGeometry x="628.9900000000001" y="1107.8200000000004" width="37" height="10.5" as="geometry" />
        </mxCell>
        <mxCell id="gk1aNY16_VAk6JklORu2-8" value="" style="verticalLabelPosition=bottom;verticalAlign=top;html=1;shape=mxgraph.basic.diag_round_rect;dx=6;whiteSpace=wrap;fontStyle=1" vertex="1" parent="1">
          <mxGeometry x="619.3700000000001" y="1092.0400000000002" width="8" height="10.13" as="geometry" />
        </mxCell>
        <mxCell id="gk1aNY16_VAk6JklORu2-9" value="&lt;font style=&quot;font-size: 6px;&quot;&gt;设备&lt;/font&gt;" style="text;html=1;align=center;verticalAlign=middle;whiteSpace=wrap;rounded=0;fontStyle=1" vertex="1" parent="1">
          <mxGeometry x="628.9900000000001" y="1093.2300000000002" width="24" height="7.42" as="geometry" />
        </mxCell>
        <mxCell id="gk1aNY16_VAk6JklORu2-10" value="&amp;lt;/&amp;gt;" style="rounded=1;arcSize=5;fillColor=#666666;strokeColor=none;fontColor=#ffffff;align=center;verticalAlign=middle;whiteSpace=wrap;fontSize=10;fontStyle=1;html=1;sketch=0;" vertex="1" parent="1">
          <mxGeometry x="568.4900000000001" y="1106.5600000000002" width="16" height="12.84" as="geometry" />
        </mxCell>
        <mxCell id="gk1aNY16_VAk6JklORu2-11" value="&lt;font style=&quot;font-size: 6px;&quot;&gt;工作负载&lt;/font&gt;" style="text;html=1;align=center;verticalAlign=middle;whiteSpace=wrap;rounded=0;fontStyle=1" vertex="1" parent="1">
          <mxGeometry x="581.4900000000001" y="1107.5600000000004" width="37" height="10.5" as="geometry" />
        </mxCell>
        <mxCell id="gk1aNY16_VAk6JklORu2-12" value="" style="shape=cube;whiteSpace=wrap;html=1;boundedLbl=1;backgroundOutline=1;darkOpacity=0.05;darkOpacity2=0.1;size=9;rotation=0;movable=1;resizable=1;rotatable=1;deletable=1;editable=1;locked=0;connectable=1;fillColor=#fff2cc;strokeColor=#000000;" vertex="1" parent="1">
          <mxGeometry x="544.12" y="998.3200000000002" width="59" height="58.68" as="geometry" />
        </mxCell>
        <mxCell id="gk1aNY16_VAk6JklORu2-13" value="" style="rounded=1;whiteSpace=wrap;html=1;fillColor=#dae8fc;strokeColor=#6c8ebf;movable=1;resizable=1;rotatable=1;deletable=1;editable=1;locked=0;connectable=1;" vertex="1" parent="1">
          <mxGeometry x="562.2400000000001" y="1039.19" width="12" height="10" as="geometry" />
        </mxCell>
        <mxCell id="gk1aNY16_VAk6JklORu2-14" value="" style="endArrow=openThin;html=1;rounded=0;endFill=0;endSize=3;dashed=1;edgeStyle=orthogonalEdgeStyle;entryX=0.5;entryY=1;entryDx=0;entryDy=0;entryPerimeter=0;exitX=0.5;exitY=0;exitDx=0;exitDy=0;" edge="1" parent="1" source="gk1aNY16_VAk6JklORu2-13">
          <mxGeometry width="50" height="50" relative="1" as="geometry">
            <mxPoint x="598.7400000000001" y="1045.5" as="sourcePoint" />
            <mxPoint x="568.2400000000001" y="1030" as="targetPoint" />
            <Array as="points">
              <mxPoint x="568.7400000000001" y="1030" />
            </Array>
          </mxGeometry>
        </mxCell>
        <mxCell id="gk1aNY16_VAk6JklORu2-15" value="&amp;lt;/&amp;gt;" style="rounded=1;arcSize=5;fillColor=#666666;strokeColor=none;fontColor=#ffffff;align=center;verticalAlign=middle;whiteSpace=wrap;fontSize=10;fontStyle=1;html=1;sketch=0;" vertex="1" parent="1">
          <mxGeometry x="579.7400000000001" y="1036.6800000000003" width="17.5" height="17.37" as="geometry" />
        </mxCell>
        <mxCell id="gk1aNY16_VAk6JklORu2-16" value="" style="verticalLabelPosition=bottom;verticalAlign=top;html=1;shape=mxgraph.basic.diag_round_rect;dx=6;whiteSpace=wrap;container=0;" vertex="1" parent="1">
          <mxGeometry x="563.7400000000001" y="1063.8700000000001" width="10.5" height="16.13" as="geometry" />
        </mxCell>
        <mxCell id="gk1aNY16_VAk6JklORu2-17" value="" style="image;html=1;image=img/lib/clip_art/networking/Ip_Camera_128x128.png;container=0;" vertex="1" parent="1">
          <mxGeometry x="566.2400000000001" y="1068.0100000000002" width="16.5" height="12.86" as="geometry" />
        </mxCell>
        <mxCell id="gk1aNY16_VAk6JklORu2-18" value="" style="endArrow=classic;html=1;rounded=0;entryX=0.5;entryY=1;entryDx=0;entryDy=0;endSize=1;startSize=3;dashed=1;exitX=0.429;exitY=0.034;exitDx=0;exitDy=0;exitPerimeter=0;" edge="1" parent="1" source="gk1aNY16_VAk6JklORu2-16" target="gk1aNY16_VAk6JklORu2-13">
          <mxGeometry width="50" height="50" relative="1" as="geometry">
            <mxPoint x="600.2400000000001" y="1074" as="sourcePoint" />
            <mxPoint x="584.4900000000001" y="1075" as="targetPoint" />
          </mxGeometry>
        </mxCell>
        <mxCell id="gk1aNY16_VAk6JklORu2-19" value="" style="endArrow=openThin;html=1;rounded=0;endFill=0;endSize=3;dashed=1;edgeStyle=orthogonalEdgeStyle;entryX=0.5;entryY=0;entryDx=0;entryDy=0;exitX=1;exitY=0.45;exitDx=0;exitDy=0;exitPerimeter=0;" edge="1" parent="1" target="gk1aNY16_VAk6JklORu2-15">
          <mxGeometry width="50" height="50" relative="1" as="geometry">
            <mxPoint x="575.24" y="1021.19" as="sourcePoint" />
            <mxPoint x="588.49" y="1038.6800000000003" as="targetPoint" />
            <Array as="points">
              <mxPoint x="588" y="1021" />
            </Array>
          </mxGeometry>
        </mxCell>
        <mxCell id="gk1aNY16_VAk6JklORu2-20" value="" style="shape=cube;whiteSpace=wrap;html=1;boundedLbl=1;backgroundOutline=1;darkOpacity=0.05;darkOpacity2=0.1;size=9;rotation=0;movable=1;resizable=1;rotatable=1;deletable=1;editable=1;locked=0;connectable=1;fillColor=#FDE3E1;strokeColor=#000000;" vertex="1" parent="1">
          <mxGeometry x="615.74" y="950" width="38.88" height="35.32" as="geometry" />
        </mxCell>
        <mxCell id="gk1aNY16_VAk6JklORu2-21" value="" style="shape=cube;whiteSpace=wrap;html=1;boundedLbl=1;backgroundOutline=1;darkOpacity=0.05;darkOpacity2=0.1;size=9;rotation=0;movable=1;resizable=1;rotatable=1;deletable=1;editable=1;locked=0;connectable=1;fillColor=#fff2cc;strokeColor=#000000;" vertex="1" parent="1">
          <mxGeometry x="618.37" y="1000" width="38.88" height="57" as="geometry" />
        </mxCell>
        <mxCell id="gk1aNY16_VAk6JklORu2-23" value="" style="endArrow=openThin;html=1;rounded=0;endFill=0;endSize=3;dashed=1;edgeStyle=orthogonalEdgeStyle;entryX=0.48;entryY=0.027;entryDx=0;entryDy=0;exitX=0.472;exitY=-0.1;exitDx=0;exitDy=0;exitPerimeter=0;strokeColor=#FF8000;entryPerimeter=0;" edge="1" parent="1" target="gk1aNY16_VAk6JklORu2-35" source="gk1aNY16_VAk6JklORu2-36">
          <mxGeometry width="50" height="50" relative="1" as="geometry">
            <mxPoint x="460.03000000000003" y="986.5999999999999" as="sourcePoint" />
            <mxPoint x="533.452" y="989.8460200000002" as="targetPoint" />
            <Array as="points">
              <mxPoint x="642" y="990" />
              <mxPoint x="568" y="990" />
            </Array>
          </mxGeometry>
        </mxCell>
        <mxCell id="gk1aNY16_VAk6JklORu2-25" value="&lt;font style=&quot;font-weight: normal; font-size: 10px;&quot;&gt;B&lt;sub&gt;2&lt;/sub&gt;&lt;/font&gt;" style="text;html=1;align=center;verticalAlign=middle;whiteSpace=wrap;rounded=0;fontStyle=1" vertex="1" parent="1">
          <mxGeometry x="675.8100000000002" y="1072.88" width="37" height="10.5" as="geometry" />
        </mxCell>
        <mxCell id="gk1aNY16_VAk6JklORu2-30" value="" style="rounded=0;whiteSpace=wrap;html=1;dashed=1;" vertex="1" parent="1">
          <mxGeometry x="617.49" y="1107.3100000000004" width="13.37" height="13" as="geometry" />
        </mxCell>
        <mxCell id="gk1aNY16_VAk6JklORu2-33" value="&lt;span style=&quot;font-size: 6px;&quot;&gt;转发器&lt;/span&gt;" style="text;html=1;align=center;verticalAlign=middle;whiteSpace=wrap;rounded=0;fontStyle=1" vertex="1" parent="1">
          <mxGeometry x="578.4900000000001" y="1091.69" width="37" height="10.5" as="geometry" />
        </mxCell>
        <mxCell id="gk1aNY16_VAk6JklORu2-34" value="" style="points=[];aspect=fixed;html=1;align=center;shadow=0;dashed=0;fillColor=light-dark(#00bef2, #E9690E);strokeColor=none;shape=mxgraph.alibaba_cloud.cdt_cloud_datatransfer;" vertex="1" parent="1">
          <mxGeometry x="569.49" y="1091.6900000000003" width="15" height="12.66" as="geometry" />
        </mxCell>
        <mxCell id="gk1aNY16_VAk6JklORu2-35" value="" style="points=[];aspect=fixed;html=1;align=center;shadow=0;dashed=0;fillColor=light-dark(#00bef2, #E9690E);strokeColor=none;shape=mxgraph.alibaba_cloud.cdt_cloud_datatransfer;" vertex="1" parent="1">
          <mxGeometry x="560.24" y="1014.3600000000001" width="16" height="13.51" as="geometry" />
        </mxCell>
        <mxCell id="gk1aNY16_VAk6JklORu2-36" value="" style="points=[];aspect=fixed;html=1;align=center;shadow=0;dashed=0;fillColor=light-dark(#00bef2, #E9690E);strokeColor=none;shape=mxgraph.alibaba_cloud.cdt_cloud_datatransfer;" vertex="1" parent="1">
          <mxGeometry x="634.87" y="1016.3600000000001" width="16" height="13.51" as="geometry" />
        </mxCell>
        <mxCell id="gk1aNY16_VAk6JklORu2-38" value="" style="points=[];aspect=fixed;html=1;align=center;shadow=0;dashed=0;fillColor=light-dark(#00bef2, #E9690E);strokeColor=none;shape=mxgraph.alibaba_cloud.cdt_cloud_datatransfer;" vertex="1" parent="1">
          <mxGeometry x="631.24" y="965.8100000000002" width="16" height="13.51" as="geometry" />
        </mxCell>
        <mxCell id="gk1aNY16_VAk6JklORu2-39" value="" style="endArrow=openThin;html=1;rounded=0;endFill=0;endSize=3;dashed=1;edgeStyle=orthogonalEdgeStyle;exitX=-0.078;exitY=0.557;exitDx=0;exitDy=0;exitPerimeter=0;strokeColor=light-dark(#77bb41, #005d00);entryX=0.478;entryY=0.006;entryDx=0;entryDy=0;entryPerimeter=0;" edge="1" parent="1" source="gk1aNY16_VAk6JklORu2-38" target="gk1aNY16_VAk6JklORu2-35">
          <mxGeometry width="50" height="50" relative="1" as="geometry">
            <mxPoint x="529.078" y="977.66402" as="sourcePoint" />
            <mxPoint x="570" y="1010" as="targetPoint" />
            <Array as="points">
              <mxPoint x="570" y="973" />
              <mxPoint x="568" y="973" />
            </Array>
          </mxGeometry>
        </mxCell>
        <mxCell id="gk1aNY16_VAk6JklORu2-40" value="" style="shape=cube;whiteSpace=wrap;html=1;boundedLbl=1;backgroundOutline=1;darkOpacity=0.05;darkOpacity2=0.1;size=9;rotation=0;movable=1;resizable=1;rotatable=1;deletable=1;editable=1;locked=0;connectable=1;fillColor=#FDE3E1;strokeColor=#000000;" vertex="1" parent="1">
          <mxGeometry x="688.38" y="950" width="38.88" height="35.32" as="geometry" />
        </mxCell>
        <mxCell id="gk1aNY16_VAk6JklORu2-41" value="" style="points=[];aspect=fixed;html=1;align=center;shadow=0;dashed=0;fillColor=light-dark(#00bef2, #E9690E);strokeColor=none;shape=mxgraph.alibaba_cloud.cdt_cloud_datatransfer;" vertex="1" parent="1">
          <mxGeometry x="703.88" y="965.8100000000002" width="16" height="13.51" as="geometry" />
        </mxCell>
        <mxCell id="gk1aNY16_VAk6JklORu2-42" value="" style="shape=cube;whiteSpace=wrap;html=1;boundedLbl=1;backgroundOutline=1;darkOpacity=0.05;darkOpacity2=0.1;size=9;rotation=0;movable=1;resizable=1;rotatable=1;deletable=1;editable=1;locked=0;connectable=1;fillColor=#fff2cc;strokeColor=#000000;" vertex="1" parent="1">
          <mxGeometry x="690.12" y="1000" width="38.88" height="57" as="geometry" />
        </mxCell>
        <mxCell id="gk1aNY16_VAk6JklORu2-44" value="" style="points=[];aspect=fixed;html=1;align=center;shadow=0;dashed=0;fillColor=light-dark(#00bef2, #E9690E);strokeColor=none;shape=mxgraph.alibaba_cloud.cdt_cloud_datatransfer;" vertex="1" parent="1">
          <mxGeometry x="706.62" y="1013.3600000000001" width="16" height="13.51" as="geometry" />
        </mxCell>
        <mxCell id="gk1aNY16_VAk6JklORu2-45" value="" style="endArrow=none;html=1;rounded=0;endFill=0;endSize=3;dashed=1;entryX=0.02;entryY=0.495;entryDx=0;entryDy=0;entryPerimeter=0;exitX=0.937;exitY=0.509;exitDx=0;exitDy=0;exitPerimeter=0;strokeColor=light-dark(#77bb41, #005d00);startArrow=openThin;startFill=0;startSize=3;" edge="1" parent="1" source="gk1aNY16_VAk6JklORu2-38" target="gk1aNY16_VAk6JklORu2-41">
          <mxGeometry width="50" height="50" relative="1" as="geometry">
            <mxPoint x="579" y="1020" as="sourcePoint" />
            <mxPoint x="608" y="982" as="targetPoint" />
          </mxGeometry>
        </mxCell>
        <mxCell id="gk1aNY16_VAk6JklORu2-46" value="" style="endArrow=none;html=1;rounded=0;endFill=0;endSize=3;dashed=1;entryX=0.371;entryY=-0.118;entryDx=0;entryDy=0;entryPerimeter=0;exitX=0.543;exitY=1.015;exitDx=0;exitDy=0;exitPerimeter=0;strokeColor=light-dark(#77bb41, #005d00);startArrow=openThin;startFill=0;startSize=3;" edge="1" parent="1" source="gk1aNY16_VAk6JklORu2-41" target="gk1aNY16_VAk6JklORu2-44">
          <mxGeometry width="50" height="50" relative="1" as="geometry">
            <mxPoint x="623" y="983" as="sourcePoint" />
            <mxPoint x="714" y="982" as="targetPoint" />
          </mxGeometry>
        </mxCell>
        <mxCell id="gk1aNY16_VAk6JklORu2-47" value="" style="endArrow=none;html=1;rounded=0;endFill=0;endSize=3;dashed=1;entryX=0.56;entryY=0.023;entryDx=0;entryDy=0;exitX=0.504;exitY=0.986;exitDx=0;exitDy=0;exitPerimeter=0;strokeColor=light-dark(#77bb41, #005d00);startSize=3;startArrow=openThin;startFill=0;entryPerimeter=0;" edge="1" parent="1" source="gk1aNY16_VAk6JklORu2-44" target="gk1aNY16_VAk6JklORu2-168">
          <mxGeometry width="50" height="50" relative="1" as="geometry">
            <mxPoint x="723" y="990" as="sourcePoint" />
            <mxPoint x="714.6200000000001" y="1036.19" as="targetPoint" />
          </mxGeometry>
        </mxCell>
        <mxCell id="gk1aNY16_VAk6JklORu2-50" value="&lt;span style=&quot;font-family: &amp;quot;Microsoft Yahei&amp;quot;, Helvetica, Arial, sans-serif; text-align: start; text-wrap-mode: wrap; color: light-dark(rgb(0, 0, 0), rgb(237, 237, 237));&quot;&gt;&lt;font style=&quot;font-size: 6px;&quot;&gt;&lt;b&gt;①&lt;/b&gt;&lt;/font&gt;&lt;/span&gt;" style="text;html=1;align=center;verticalAlign=middle;resizable=0;points=[];autosize=1;strokeColor=none;fillColor=none;labelBackgroundColor=none;" vertex="1" parent="1">
          <mxGeometry x="565.24" y="998.32" width="30" height="30" as="geometry" />
        </mxCell>
        <mxCell id="gk1aNY16_VAk6JklORu2-51" value="&lt;span style=&quot;font-family: &amp;quot;Microsoft Yahei&amp;quot;, Helvetica, Arial, sans-serif; text-align: start; text-wrap-mode: wrap; color: light-dark(rgb(255, 128, 0), rgb(237, 237, 237));&quot;&gt;&lt;font style=&quot;font-size: 6px;&quot;&gt;&lt;b&gt;②&lt;/b&gt;&lt;/font&gt;&lt;/span&gt;" style="text;html=1;align=center;verticalAlign=middle;resizable=0;points=[];autosize=1;strokeColor=none;fillColor=none;" vertex="1" parent="1">
          <mxGeometry x="592.8700000000001" y="977.6599999999999" width="30" height="30" as="geometry" />
        </mxCell>
        <mxCell id="gk1aNY16_VAk6JklORu2-52" value="&lt;span style=&quot;font-family: &amp;quot;Microsoft Yahei&amp;quot;, Helvetica, Arial, sans-serif; font-style: normal; font-variant-ligatures: normal; font-variant-caps: normal; letter-spacing: normal; orphans: 2; text-align: start; text-indent: 0px; text-transform: none; widows: 2; word-spacing: 0px; -webkit-text-stroke-width: 0px; white-space: normal; text-decoration-thickness: initial; text-decoration-style: initial; text-decoration-color: initial; float: none; color: rgb(119, 187, 65); display: inline !important;&quot;&gt;&lt;font style=&quot;font-size: 6px;&quot;&gt;&lt;b&gt;③&lt;/b&gt;&lt;/font&gt;&lt;/span&gt;" style="text;whiteSpace=wrap;html=1;" vertex="1" parent="1">
          <mxGeometry x="663.49" y="950.0000000000002" width="50" height="40" as="geometry" />
        </mxCell>
        <mxCell id="gk1aNY16_VAk6JklORu2-54" value="" style="rounded=1;whiteSpace=wrap;html=1;fillColor=#dae8fc;strokeColor=#6c8ebf;movable=1;resizable=1;rotatable=1;deletable=1;editable=1;locked=0;connectable=1;" vertex="1" parent="1">
          <mxGeometry x="636.8700000000001" y="1039.8700000000001" width="12" height="10" as="geometry" />
        </mxCell>
        <mxCell id="gk1aNY16_VAk6JklORu2-55" value="" style="verticalLabelPosition=bottom;verticalAlign=top;html=1;shape=mxgraph.basic.diag_round_rect;dx=6;whiteSpace=wrap;container=0;" vertex="1" parent="1">
          <mxGeometry x="639.1800000000001" y="1065.0600000000002" width="10.5" height="16.13" as="geometry" />
        </mxCell>
        <mxCell id="gk1aNY16_VAk6JklORu2-56" value="" style="image;html=1;image=img/lib/clip_art/networking/Ip_Camera_128x128.png;container=0;" vertex="1" parent="1">
          <mxGeometry x="641.6800000000001" y="1069.2000000000003" width="16.5" height="12.86" as="geometry" />
        </mxCell>
        <mxCell id="gk1aNY16_VAk6JklORu2-57" value="" style="endArrow=classic;html=1;rounded=0;entryX=0.5;entryY=1;entryDx=0;entryDy=0;endSize=1;startSize=3;dashed=1;exitX=0.429;exitY=0.034;exitDx=0;exitDy=0;exitPerimeter=0;strokeColor=#FF8000;" edge="1" parent="1" source="gk1aNY16_VAk6JklORu2-55">
          <mxGeometry width="50" height="50" relative="1" as="geometry">
            <mxPoint x="675.6800000000001" y="1075.19" as="sourcePoint" />
            <mxPoint x="643.4399999999999" y="1050.19" as="targetPoint" />
          </mxGeometry>
        </mxCell>
        <mxCell id="gk1aNY16_VAk6JklORu2-58" value="" style="endArrow=openThin;html=1;rounded=0;endFill=0;endSize=3;dashed=1;edgeStyle=orthogonalEdgeStyle;entryX=0.5;entryY=1;entryDx=0;entryDy=0;entryPerimeter=0;exitX=0.5;exitY=0;exitDx=0;exitDy=0;strokeColor=#FF8000;" edge="1" parent="1">
          <mxGeometry width="50" height="50" relative="1" as="geometry">
            <mxPoint x="643.3100000000001" y="1040.1899999999998" as="sourcePoint" />
            <mxPoint x="643.5500000000002" y="1031.1899999999998" as="targetPoint" />
            <Array as="points">
              <mxPoint x="644.0500000000002" y="1031.1899999999998" />
            </Array>
          </mxGeometry>
        </mxCell>
        <mxCell id="gk1aNY16_VAk6JklORu2-82" value="&lt;font style=&quot;font-weight: normal; font-size: 10px;&quot;&gt;B&lt;sub&gt;1&lt;/sub&gt;&lt;/font&gt;" style="text;html=1;align=center;verticalAlign=middle;whiteSpace=wrap;rounded=0;fontStyle=1" vertex="1" parent="1">
          <mxGeometry x="592.5500000000002" y="1071.8800000000003" width="37" height="10.5" as="geometry" />
        </mxCell>
        <mxCell id="gk1aNY16_VAk6JklORu2-168" value="" style="rounded=1;whiteSpace=wrap;html=1;fillColor=#dae8fc;strokeColor=#6c8ebf;movable=1;resizable=1;rotatable=1;deletable=1;editable=1;locked=0;connectable=1;" vertex="1" parent="1">
          <mxGeometry x="708.0000000000001" y="1040.19" width="12" height="10" as="geometry" />
        </mxCell>
        <mxCell id="gk1aNY16_VAk6JklORu2-169" value="" style="verticalLabelPosition=bottom;verticalAlign=top;html=1;shape=mxgraph.basic.diag_round_rect;dx=6;whiteSpace=wrap;container=0;" vertex="1" parent="1">
          <mxGeometry x="710.3100000000001" y="1065.38" width="10.5" height="16.13" as="geometry" />
        </mxCell>
        <mxCell id="gk1aNY16_VAk6JklORu2-170" value="" style="image;html=1;image=img/lib/clip_art/networking/Ip_Camera_128x128.png;container=0;" vertex="1" parent="1">
          <mxGeometry x="712.8100000000001" y="1069.5200000000002" width="16.5" height="12.86" as="geometry" />
        </mxCell>
        <mxCell id="gk1aNY16_VAk6JklORu2-171" value="" style="endArrow=classic;html=1;rounded=0;entryX=0.5;entryY=1;entryDx=0;entryDy=0;endSize=1;startSize=3;dashed=1;exitX=0.429;exitY=0.034;exitDx=0;exitDy=0;exitPerimeter=0;strokeColor=#77BB41;" edge="1" parent="1" source="gk1aNY16_VAk6JklORu2-169">
          <mxGeometry width="50" height="50" relative="1" as="geometry">
            <mxPoint x="746.8100000000001" y="1075.51" as="sourcePoint" />
            <mxPoint x="714.5699999999999" y="1050.51" as="targetPoint" />
          </mxGeometry>
        </mxCell>
        <mxCell id="gk1aNY16_VAk6JklORu2-197" value="" style="shape=image;verticalLabelPosition=bottom;labelBackgroundColor=default;verticalAlign=top;aspect=fixed;imageAspect=0;image=data:image/png,iVBORw0KGgoAAAANSUhEUgAAAKAAAACoCAYAAABnnOVAAAAAAXNSR0IArs4c6QAAAERlWElmTU0AKgAAAAgAAYdpAAQAAAABAAAAGgAAAAAAA6ABAAMAAAABAAEAAKACAAQAAAABAAAAoKADAAQAAAABAAAAqAAAAACXnFJIAAAACXBIWXMAAD2EAAA9hAHVrK90AAAGpUlEQVR4Ae3cv6scVRjG8dmbVPYWCaa4ZZr8AaKFWAjmWijERrAO2Fn6MxGSIhdtVEgj2AiSC1p4CaSIetFKUsU/QEz8G4Igic4RJsze3blnZ+acmefs8w0Md3+cOfO+7/Nhdouwi6qq/q0P/m3/BH6qW3y1Pv5WanVHqRhqyTqBl+rdb9fHM1mv0nNzAPYcWOHLA8LD+pBBCMDCRQ0oXwrhom6g8zvgl9evVW+98fqAHjlFZQJPHj+pLl2+XN395dfjJYXvhHv18ej4G1M+P1Vf7ErXBW/f/bE6d/ZsdeH8+a4lvC4+gcXOorp08WJ17/f71R8PHrSr3a2fPF8fB/XxT/uNKR+fCDAUAsIp48hzLWWEK98BP/v4o5UpvPPe+9U3332/8jovlDOBnVM71cHNm9XLL75wvOhZvxOu3AG/+nS/eu7MmerO0dFSodwJl8ZR5BPFO+HKHTBM9s3X9iruhEUaixatdidcCxCE0RyLXqCEsBMgCIs2Fi1eBeGJAEEYzbHoBQoIowBBWLSxaPFzI9wIIAijORa9YE6EGwMEYdHGosXPhbAXQBBGcyx6wRwIewMEYdHGosVPjXAQQBBGcyx6wZQIBwMEYdHGosVPhXAUQBBGcyx6wRQIRwMEYdHGosXnRpgEIAijORa9ICfCZABBWLSxaPG5ECYFCMJojkUvyIEwOUAQFm0sWnxqhFkAgjCaY9ELUiLMBhCERRuLFp8KYVaAIIzmWPSCFAizAwRh0caixY9FOAlAEEZzLHrBGISTAQRh0caixQ9FOClAEEZzLHrBEISTAwRh0caixfdFOAtAEEZzLHpBH4SzAQRh0caixW+KcOX3Af+691t089QLbv1wWL179ZPU27Kf9gTC7xO+MusdsJlP12/RNO/zdysnEH6V620JgGG8INxKZLGmdmUANghjFfP+dk3gtHo7jx/+qV4i9W04geuff1F9eGN/abXUHXCpMp5YTACAFjHrNglA3WwsKgOgRcy6TQJQNxuLygBoEbNukwDUzcaiMgBaxKzbJAB1s7GoDIAWMes2CUDdbCwqA6BFzLpNAlA3G4vKAGgRs26TANTNxqIyAFrErNskAHWzsagMgBYx6zYJQN1sLCoDoEXMuk0CUDcbi8oAaBGzbpMA1M3GojIAWsSs2yQAdbOxqAyAFjHrNglA3WwsKgOgRcy6TQJQNxuLygBoEbNukwDUzcaiMgBaxKzbJAB1s7GoDIAWMes2CUDdbCwqA6BFzLpNAlA3G4vKAGgRs26TANTNxqIyAFrErNskAHWzsagMgBYx6zYJQN1sLCoDoEXMuk0CUDcbi8oAaBGzbpMA1M3GojIAWsSs2yQAdbOxqAyAFjHrNglA3WwsKgOgRcy6TQJQNxuLygBoEbNukwDUzcaiMgBaxKzbJAB1s7GoDIAWMes2CUDdbCwqA6BFzLpNAlA3G4vKAGgRs26TANTNxqIyAFrErNskAHWzsagMgBYx6zYJQN1sLCoDoEXMuk0CUDcbi8oAaBGzbpMA1M3GojIAWsSs2yQAdbOxqAyAFjHrNglA3WwsKgOgRcy6TQJQNxuLygBoEbNukwDUzcaiMgBaxKzbJAB1s7GoDIAWMes2CUDdbCwqA6BFzLpNAlA3G4vKAGgRs26TANTNxqKyFYAf3Ni3aJwmNSYQAD5sl/L1rYMKhO2J8DjnBALAvfoAYc4ps3fnBALA+/UBws4R8UbOCTTfAUGYc8rs3TmBBmBYAMLOMfFGrgm0AYZrgDDXpNl37QSOAwyLQLh2VLyYYwLrAIbrgDDHtNlzZQJdAMNCEK6MixdST+AkgOFaIEw9cfZbmkAMYFgMwqWR8STlBDYBGK4HwpRTZ6+nE9gUYDgBhE/HxoNUE+gDMFwThKkmzz7/T6AvwHASCMGTbAJDAIIw2fjZaChAEGInyQTGAARhkgi8NxkLEITefkZ3nwIgCEfH4LtBKoAg9DU0qvOUAEE4KgrPk1MDBKGno8Fd5wAIwsFx+J2YCyAI/SwN6jgnQBAOisTrpNwAQejlqXe3UwAEYe9YfE6YCiAIfUz16nRKgCDsFY3H4tMztNn8f8LD+trnmuuHX+Xin98Epr4DNhNuEK78KlezgL8eE5gLYJjuWoQeY6fLZgJzfAQ31w5/G4RLH8ftBXd+Pmo/5XHBE1iX5UKknwt1HZ0IRWqkjPQTuDbnR3C7neZOuPSdsL2Ax9s5ARWAYbog3E5jJ3al8hHcLnK3fnK1Pp5tv8jjrZzAt1vZFU2VM4H/APdGE8uvIqArAAAAAElFTkSuQmCC;" vertex="1" parent="1">
          <mxGeometry x="663.2400000000001" y="1091.3600000000004" width="12.37" height="12.99" as="geometry" />
        </mxCell>
        <mxCell id="gk1aNY16_VAk6JklORu2-198" value="&lt;font style=&quot;font-size: 6px;&quot;&gt;边端集群主节点&lt;/font&gt;" style="text;html=1;align=center;verticalAlign=middle;whiteSpace=wrap;rounded=0;fontStyle=1" vertex="1" parent="1">
          <mxGeometry x="666.11" y="1091.6000000000001" width="68.26" height="10.5" as="geometry" />
        </mxCell>
        <mxCell id="gk1aNY16_VAk6JklORu2-199" value="&lt;font style=&quot;font-size: 6px;&quot;&gt;边端集群从节点&lt;/font&gt;" style="text;html=1;align=center;verticalAlign=middle;whiteSpace=wrap;rounded=0;fontStyle=1" vertex="1" parent="1">
          <mxGeometry x="676.86" y="1107.5600000000002" width="46.75" height="10.5" as="geometry" />
        </mxCell>
        <mxCell id="gk1aNY16_VAk6JklORu2-200" value="" style="shape=image;verticalLabelPosition=bottom;labelBackgroundColor=default;verticalAlign=top;aspect=fixed;imageAspect=0;image=data:image/png,iVBORw0KGgoAAAANSUhEUgAAAKAAAACoCAYAAABnnOVAAAAAAXNSR0IArs4c6QAAAERlWElmTU0AKgAAAAgAAYdpAAQAAAABAAAAGgAAAAAAA6ABAAMAAAABAAEAAKACAAQAAAABAAAAoKADAAQAAAABAAAAqAAAAACXnFJIAAAACXBIWXMAAD2EAAA9hAHVrK90AAAHFUlEQVR4Ae3cT4hVZRzG8dd0V2RYZthCWgVBklgDBSZYhAsXQi7cGLSYQYTa1Uom0DbiLoigdi2CVm1cGLRJwxiRzKGBpFWLNooDVvMvauo90B3OeM+9Z+697zn3ue/zFQ7dOWfmnN/zez7qZHZDCOFKPP7lyH4Hd2LHU/GQ+vGQ1DQM0+QGdsebX4qHFEIANlm53r3lEBYAd+jtiYka3IAUwgLf373Cvnv6ZPhw9kyvy5yfkA2cPf9x+OiTL8vTdhAeiyevly+0/Xp7fODb8dhX9eC5Gz+FpaWVcOTwS1WXOTchGzhyeCosLS+HuRsL5Ykfjh8cj8e38fitfKHN110Adz76SFhb+2tjBhBurGKiX6gi7AJ4/uzp8MOtn8PKytrGwkG4sYqJfqGIsAvgmekT4cTx18PX33wPwonmVj28GsIugCfffCMcPPBceHlqfyXCP+P3hK/xPWF1uxNyVglhJcCn9+4JT+15ohLh9fgvJiCcEGl9xlRB2BNgMTsI+zSYwSUFhH0BgjADZTURxo2wFiAIaxrM4PI4EW4JIAgzUFYTYVwItwwQhDUNZnB5HAgHAgjCDJTVRGgb4cAAQVjTYAaX20Q4FEAQZqCsJkJbCIcGCMKaBjO43AbCkQCCMANlNRGaRjgyQBDWNJjB5SYRJgEIwgyU1URoCmEygCCsaTCDy00gTAoQhBkoq4mQGmFygCCsaTCDyykRNgIQhBkoq4mQCmFjAEFY02AGl1MgbBRgPcLl+Nf7pd4pIgMW7UYYFWHjAPsjXIh/vR+E7ZJJ/7RRELYCEITpS1e747AIWwMIQjUy6ecZBmGrAEGYvnS1Ow6KsHWAIFQjk36eQRCOBSAI05eudsetIhwbQBCqkUk/z1YQbouPLd4j+lDn8V99cTFMvfh858NW/vnj/O3w1sxsuLd4v5Xn8RCJDdyNUxyWeIveF/Y/Gz7/9Fx4fNdOic0wRCsbKN4k84IEwCJuB2Er0XmIygYekwFYbKRA+OTuXSrLYY4WNiD3BuXP7Nsb7txd3Ih+5fJn4dArBzY+5sXkbuDqtZvh1aPTmwJI/Qq4aTI+sNgAAC1q1g0JQN1uLCYDoEXNuiEBqNuNxWQAtKhZNyQAdbuxmAyAFjXrhgSgbjcWkwHQombdkADU7cZiMgBa1KwbEoC63VhMBkCLmnVDAlC3G4vJAGhRs25IAOp2YzEZAC1q1g0JQN1uLCYDoEXNuiEBqNuNxWQAtKhZNyQAdbuxmAyAFjXrhgSgbjcWkwHQombdkADU7cZiMgBa1KwbEoC63VhMBkCLmnVDAlC3G4vJAGhRs25IAOp2YzEZAC1q1g0JQN1uLCYDoEXNuiEBqNuNxWQAtKhZNyQAdbuxmAyAFjXrhgSgbjcWkwHQombdkADU7cZiMgBa1KwbEoC63VhMBkCLmnVDAlC3G4vJAGhRs25IAOp2YzEZAC1q1g0JQN1uLCYDoEXNuiEBqNuNxWQAtKhZNyQAdbuxmAyAFjXrhgSgbjcWkwHQombdkADU7cZiMgBa1KwbEoC63VhMBkCLmnVDAlC3G4vJAGhRs25IAOp2YzEZAC1q1g0JQN1uLCYDoEXNuiEBqNuNxWQAtKhZNyQAdbuxmAyAFjXrhgSgbjcWkwHQombdkADU7cZiMgBa1KwbEoC63VhMBkCLmnVDAlC3G4vJAGhRs25IAOp2YzEZAC1q1g0JQN1uLCYDoEXNuiEBqNuNxWQAtKhZN2QXwJWVNd1pmSy7DXQBfOe9i2F1dTW7oATS3EAB8Hp5tHuL98Op6Q9AWF4KrxvbQAHw/XhcLj/h2twtEJYXwuvGNlAAXI/HsXiAsLE1c+NeG+h8D/hP/AQQ9toS5xvbQAdg8QAQNrZmbtxrA2WAxeeAsNemON/IBh4EWDykP8IV/oimkSZMb1oFsD/CmfhHNCA05ZI+di+AIEy/a+5YsYF+AEFYsTBOpd1AHUAQpt03d3tgA1sBCMIHlsaH6TawVYAgTLdz7lTawCAAQVhaHC/TbGBQgCBMs3fu8v8GhgEIQvgk28CwAEGYrALvG40CEITedpKkHxVgDcJZ/rNdkpryvUkKgH0QzodTMyDMl8/oyVIBBOHoXVjeISVAEFoSGi10aoAgHK0Pu69uAiAI7RgNH7gpgCAcvhOrr2wSIAitKA0XtmmAIByuF5uvagMgCG04DR60LYAgHLwbi69oEyAILUgNFrJtgLUI19eLt6rhh8sGxgGw2G2P//l9Ptz+5VeX3ZMzbmBcAIvlVyL8/Y8lijHawI4xZ+0gvBTnOFo1y9yNhbC0zNuBVO1m0s59d+1m18jbus6M58T2+NieCMczEk9tYQNXx/lbcDlf51fCTW+SWf4EXue5ARWAxXZBmKexvqlUfgsuD1n8pDgXj4Plk7zOcgMLWaYi1ORs4D8jI2SYkf+zHAAAAABJRU5ErkJggg==;" vertex="1" parent="1">
          <mxGeometry x="663.2399999999999" y="1108.5600000000002" width="12.37" height="12.99" as="geometry" />
        </mxCell>
        <mxCell id="gk1aNY16_VAk6JklORu2-225" value="" style="endArrow=openThin;html=1;rounded=0;endFill=0;endSize=3;dashed=1;edgeStyle=orthogonalEdgeStyle;entryX=0.5;entryY=0;entryDx=0;entryDy=0;strokeColor=#FF8000;" edge="1" parent="1" target="gk1aNY16_VAk6JklORu2-15">
          <mxGeometry width="50" height="50" relative="1" as="geometry">
            <mxPoint x="580" y="1021" as="sourcePoint" />
            <mxPoint x="589" y="1036.68" as="targetPoint" />
            <Array as="points">
              <mxPoint x="588" y="1021" />
            </Array>
          </mxGeometry>
        </mxCell>
        <mxCell id="gk1aNY16_VAk6JklORu2-226" value="" style="endArrow=openThin;html=1;rounded=0;endFill=0;endSize=3;dashed=1;edgeStyle=orthogonalEdgeStyle;entryX=0.5;entryY=0;entryDx=0;entryDy=0;exitX=1;exitY=0.45;exitDx=0;exitDy=0;exitPerimeter=0;strokeColor=#77BB41;" edge="1" parent="1">
          <mxGeometry width="50" height="50" relative="1" as="geometry">
            <mxPoint x="575.24" y="1020.87" as="sourcePoint" />
            <mxPoint x="588" y="1036.68" as="targetPoint" />
            <Array as="points">
              <mxPoint x="588" y="1020.68" />
            </Array>
          </mxGeometry>
        </mxCell>
      </root>
    </mxGraphModel>
  </diagram>
</mxfile>
